# xmcd
#
# Track frame offsets:
#	150
#	10873
#	20126
#	37113
#	46563
#	67099
#
# Disc length: 1015 seconds
# Revision: 0
# Processed by: cddbd v1.5.2PL0 Copyright (c) Steve Scherf et al.
# Submitted via: dBpowerAMP V12.0
#
DISCID=4903f506
DTITLE=Kristyn Harris and Brook Wallace - Twice The Fun
DYEAR=2015
DGENRE=
TTITLE0=Happy As A Lone Star
TTITLE1=Give Out With A Song
TTITLE2=Moon River
TTITLE3=Saddle On My Heart
TTITLE4=Ten Thousand Reasons (Bless The Lord)
TTITLE5=Ragtime Cowboy Joe
EXTD=
EXTT0=
EXTT1=
EXTT2=
EXTT3=
EXTT4=
EXTT5=
PLAYORDER=
